<svg aria-hidden="true" style="position:absolute;width:0;height:0" xmlns="http://www.w3.org/2000/svg" overflow="hidden"><defs><symbol id="look-icon" viewBox="0 0 32 32"><path d="M30.786 26.636a2.933 2.933 0 11-4.149 4.148l-8.597-8.596a11.663 11.663 0 01-5.95 1.634C5.61 23.822.357 18.569.357 12.089S5.61.356 12.09.356s11.733 5.253 11.733 11.733c0 2.174-.603 4.204-1.634 5.95l8.597 8.597zM12.089 3.287c-4.86 0-8.8 3.941-8.8 8.802s3.94 8.8 8.8 8.8c4.86 0 8.8-3.94 8.8-8.8s-3.94-8.802-8.8-8.802z"/></symbol><symbol id="shopping-card" viewBox="0 0 38 32"><path d="M37.815 7.814h.002l-5.28 11.733c-.26.578-.823.99-1.487 1.035l-15.206 1.013.879 2.509H33.28a3.522 3.522 0 010 7.042 3.521 3.521 0 01-3.52-3.52H13.333a3.521 3.521 0 01-3.52 3.52 3.521 3.521 0 010-7.042h3.181L6.219 4.746H2.187a1.76 1.76 0 010-3.52h5.28c.768 0 1.414.495 1.655 1.18l.006-.002 1.024 2.929h26.061c.973 0 1.76.787 1.76 1.76 0 .256-.058.499-.158.721zM11.386 8.853l3.253 9.295 15.123-1.009 3.729-8.286H11.385z"/></symbol><symbol id="fb-svg" viewBox="0 0 16 32"><path d="M14.879.245v5.072s-3.738-.373-4.674 1.06c-.512.783-.208 3.077-.254 4.724h4.959c-.418 1.925-.719 3.23-1.028 4.896H9.924v15.759h-6.87V16.059H.131v-4.958h2.891c.148-3.626.203-7.217 2.005-9.046C7.05-.002 8.981.246 14.879.246z"/></symbol><symbol id="inst-svg" viewBox="0 0 32 32"><path d="M27.938 31.754H4.307a3.939 3.939 0 01-3.938-3.94V4.184A3.94 3.94 0 014.307.244h23.631a3.939 3.939 0 013.938 3.94v23.63a3.94 3.94 0 01-3.938 3.94zM16.123 9.894a6.1 6.1 0 00-5.536 3.545h-.006c-.01.022-.017.046-.027.068-.058.129-.108.262-.158.395-.023.065-.049.128-.07.192a5.51 5.51 0 00-.117.418c-.017.065-.037.13-.052.197a6.11 6.11 0 00-.075.453c-.009.062-.021.122-.028.185a6.104 6.104 0 006.069 6.757 6.104 6.104 0 006.069-6.757c-.007-.063-.02-.123-.028-.185a6.11 6.11 0 00-.075-.453c-.015-.066-.034-.132-.052-.197a4.87 4.87 0 00-.117-.418c-.021-.064-.047-.127-.07-.192a6.132 6.132 0 00-.158-.395c-.01-.022-.017-.046-.027-.068h-.006a6.1 6.1 0 00-5.536-3.545zm12.209-4.529c0-.87-.705-1.574-1.575-1.574h-3.151c-.87 0-1.575.704-1.575 1.574v3.152c0 .87.705 1.575 1.575 1.575h3.151c.87 0 1.575-.705 1.575-1.575V5.365zm0 8.074h-2.905c.224.816.345 1.675.345 2.561 0 5.329-4.32 9.648-9.649 9.648S6.474 21.329 6.474 16c0-.886.121-1.745.345-2.561H3.914v13.194c0 .871.705 1.577 1.575 1.577h21.268c.87 0 1.575-.705 1.575-1.577V13.439z"/></symbol><symbol id="pint-svg" viewBox="0 0 38 32"><path d="M13.165 24.515c-.304 1.212-.611 2.481-.928 3.724-.313 1.225-.589 2.467-1.044 3.593-.755 1.863-1.713 3.664-2.972 5.121-.836.97-.659.583-.911.531-.192-.041-.208-.228-.246-.502-.205-1.481-.065-3.193.01-4.857.087-1.897.486-3.473.857-5.049.704-3.002 1.376-5.945 2.087-8.966.047-.201.175-.532.131-.647-.323-.839-.532-1.593-.624-2.474a7.878 7.878 0 01.202-2.826c.403-1.539 1.328-2.902 2.755-3.401.908-.314 1.913-.172 2.524.192.628.377 1.06.97 1.261 1.812.215.895.057 1.965-.116 2.751-.388 1.773-.899 3.104-1.363 4.815-.23.848-.49 1.719-.275 2.636.198.841.636 1.42 1.232 1.855.62.451 1.353.697 2.364.662 1.786-.063 3.027-1.204 3.856-2.281 1.328-1.724 2.131-4.049 2.436-6.816.097-.893.17-1.919.102-2.929-.128-1.868-.711-3.37-1.639-4.534-.881-1.11-2.132-1.991-3.654-2.489-1.508-.492-3.596-.656-5.45-.339-3.372.577-5.748 2.493-7.149 5.139-.733 1.385-1.217 2.977-1.217 4.96 0 1.529.377 2.713.986 3.636.193.292.477.534.666.868.269.474-.041 1.18-.173 1.693-.16.618-.177 1.472-.899 1.487-.3.006-.675-.212-.928-.353-1.898-1.049-3.05-2.957-3.523-5.431-.288-1.504-.287-3.257 0-4.71a13.35 13.35 0 011.363-3.754C4.07 5.446 5.805 3.697 7.917 2.449 9.54 1.489 11.372.816 13.6.491c.739-.108 1.504-.153 2.335-.192a14.04 14.04 0 016.292 1.178 12.867 12.867 0 014.335 3.121c1.219 1.331 2.106 2.879 2.668 4.813.294 1.007.579 2.083.579 3.327 0 1.248-.263 2.346-.448 3.444-.689 4.113-2.646 7.478-5.583 9.393a9.638 9.638 0 01-2.551 1.177c-.97.282-2.077.495-3.263.412-1.151-.079-2.093-.391-2.884-.839-.785-.444-1.446-.988-1.914-1.809z"/></symbol><symbol id="tweet-svg" viewBox="0 0 38 32"><path d="M25.473.874c2.959-.052 4.534 1.025 6.038 2.396 1.277-.109 2.937-.822 3.914-1.319l.95-.519c-.559 1.508-1.315 2.689-2.479 3.587-.259.198-.515.467-.839.593v.019c1.658-.016 3.025-.765 4.324-1.171v.019c-.682 1.084-1.606 2.185-2.591 2.973l-1.193.947c.022 1.756-.026 3.431-.353 4.906-1.908 8.575-6.964 14.396-14.966 16.89-2.874.895-7.517 1.263-10.81.445-1.632-.404-3.107-.863-4.49-1.468-.769-.336-1.482-.7-2.163-1.116l-.671-.407c.742.022 1.612.227 2.441.092.752-.121 1.488-.089 2.182-.24 1.728-.38 3.263-.881 4.583-1.655.641-.375 1.615-.815 2.07-1.356-.858.015-1.636-.185-2.273-.409-2.471-.873-3.91-2.477-4.847-4.887.749.083 2.906.278 3.411-.148-.943-.052-1.849-.598-2.497-1.004-1.988-1.244-3.609-3.329-3.597-6.54l.783.371c.5.211 1.008.323 1.603.447.252.052.755.199 1.044.092h-.038c-.384-.447-1.011-.745-1.398-1.226-1.276-1.584-2.47-4.023-1.715-6.929.192-.737.496-1.388.82-1.988l.038.017c.148.311.48.54.689.8.652.807 1.455 1.533 2.273 2.173 2.79 2.182 5.302 3.523 9.337 4.515 1.024.253 2.207.445 3.43.447-.343-.999-.233-2.618.036-3.585.681-2.435 2.157-4.188 4.324-5.129a9.364 9.364 0 011.696-.521c.311-.036.621-.074.932-.111z"/></symbol></defs></svg>